<?xml version="1.0"?>
<svg xmlns="http://www.w3.org/2000/svg" xmlns:xlink="http://www.w3.org/1999/xlink" xmlns:svgjs="http://svgjs.com/svgjs" version="1.1" width="512" height="512" x="0" y="0" viewBox="0 0 512 512" style="enable-background:new 0 0 512 512" xml:space="preserve" class=""><g transform="matrix(1,0,0,1,0,0)"><path xmlns="http://www.w3.org/2000/svg" d="m314.593 295.731a25.086 25.086 0 0 0 -4.072 29.49l.409.758a25.056 25.056 0 0 0 32.1 11.17l6.352-2.731a13.166 13.166 0 0 1 11 .27l5.522 2.7a25.182 25.182 0 0 0 29.6-39.671l-20.214-21.531a28.637 28.637 0 0 0 -41.443-.326zm39.82-16.58a16.7 16.7 0 0 1 12.129 5.249l20.164 21.475a13.182 13.182 0 0 1 -15.522 20.737l-5.523-2.7a25.16 25.16 0 0 0 -21.015-.515l-6.352 2.731a13.116 13.116 0 0 1 -16.806-5.848l-.409-.759a13.129 13.129 0 0 1 2.132-15.436l19.254-19.871a16.729 16.729 0 0 1 11.948-5.063z" fill="#4345c5" data-original="#000000" style=""/><path xmlns="http://www.w3.org/2000/svg" d="m334.945 219.693c-10.778 0-19.222 10.54-19.222 24s8.444 24 19.222 24 19.221-10.54 19.221-24-8.443-24-19.221-24zm0 35.992c-3.416 0-7.222-4.927-7.222-12s3.806-12 7.222-12 7.221 4.927 7.221 12-3.806 12-7.221 12z" fill="#4345c5" data-original="#000000" style=""/><path xmlns="http://www.w3.org/2000/svg" d="m374.126 266.027c10.778 0 19.222-10.541 19.222-24s-8.444-24-19.222-24-19.221 10.54-19.221 24 8.443 24 19.221 24zm0-35.992c3.416 0 7.222 4.926 7.222 12s-3.806 12-7.222 12-7.221-4.927-7.221-12 3.805-12 7.221-12z" fill="#4345c5" data-original="#000000" style=""/><path xmlns="http://www.w3.org/2000/svg" d="m398.018 288.73a14.683 14.683 0 0 0 4.535.709 17.637 17.637 0 0 0 10.417-3.628 26.314 26.314 0 0 0 9.1-13.11c3.906-12.086-.54-23.979-10.123-27.076s-20.147 3.943-24.047 16.029.535 23.979 10.118 27.076zm1.3-23.385c1.679-5.194 5.378-8.436 8.055-8.436a2.9 2.9 0 0 1 .891.134c2.677.865 4.269 6.167 2.395 11.967a14.464 14.464 0 0 1 -4.8 7.142c-.88.649-2.588 1.66-4.141 1.16-2.687-.865-4.28-6.167-2.405-11.967z" fill="#4345c5" data-original="#000000" style=""/><path xmlns="http://www.w3.org/2000/svg" d="m320.215 261.461a26.308 26.308 0 0 0 -9.746-12.639c-4.811-3.188-10.307-3.98-15.08-2.169-9.415 3.572-13.262 15.672-8.757 27.548a26.3 26.3 0 0 0 9.746 12.638 17.837 17.837 0 0 0 9.819 3.123 14.791 14.791 0 0 0 5.261-.954c9.415-3.571 13.262-15.671 8.757-27.547zm-13.015 16.329c-1.525.581-3.283-.348-4.193-.952a14.461 14.461 0 0 1 -5.156-6.893c-2.162-5.7-.836-11.074 1.794-12.071a2.9 2.9 0 0 1 1.04-.184 6.151 6.151 0 0 1 3.153 1.135 14.465 14.465 0 0 1 5.162 6.893c2.157 5.699.831 11.074-1.8 12.072z" fill="#4345c5" data-original="#000000" style=""/><path xmlns="http://www.w3.org/2000/svg" d="m459.237 59.939-45.071-45.07a16.623 16.623 0 0 0 -23.509 23.508l10.781 10.781-32.707 32.708-23.765-23.766a17.609 17.609 0 0 0 -24.9 24.9l1.231 1.231-148.013 148.012a19.5 19.5 0 0 0 -2.267 24.8l-18.808 18.808a16.284 16.284 0 0 0 -3.264 18.288l-24.17 24.17a21.959 21.959 0 0 0 -3.638 26.173l-54.23 54.23a6 6 0 1 0 8.486 8.485l54.229-54.23a21.924 21.924 0 0 0 26.173-3.638l24.171-24.171a16.241 16.241 0 0 0 18.286-3.264l18.807-18.809a19.476 19.476 0 0 0 24.8-2.265l12.761-12.761a99.911 99.911 0 1 0 108.568-108.559l26.685-26.684 1.229 1.229a17.609 17.609 0 0 0 24.9-24.9l-23.762-23.771 32.707-32.707 10.781 10.781a16.642 16.642 0 0 0 23.508 0 16.644 16.644 0 0 0 .001-23.509zm-311.927 280.906a9.935 9.935 0 1 1 -14.05-14.05l23.441-23.44 14.05 14.049zm42.457-27.436a4.276 4.276 0 0 1 -6.04 0l-23.033-23.032a4.277 4.277 0 0 1 0-6.041l18.568-18.567 29.072 29.071zm252.266-34.409a87.913 87.913 0 1 1 -87.913-87.913 88.012 88.012 0 0 1 87.913 87.913zm-95.7-99.611a100.073 100.073 0 0 0 -91.823 91.811l-21.133 21.132a7.478 7.478 0 0 1 -10.577 0l-41.03-41.029a7.487 7.487 0 0 1 0-10.578l12.692-12.692 18.292 18.292a6 6 0 0 0 8.485-8.486l-18.292-18.291 9.793-9.793 7.025 7.025a6 6 0 0 0 8.485-8.486l-7.025-7.024 9.793-9.794 18.293 18.292a6 6 0 0 0 8.485-8.485l-18.296-18.289 9.8-9.794 7.024 7.025a6 6 0 0 0 8.485-8.486l-7.024-7.024 9.793-9.793 18.292 18.292a6 6 0 1 0 8.485-8.485l-18.295-18.291 9.793-9.793 7.024 7.024a6 6 0 0 0 8.485-8.485l-7.024-7.024 9.793-9.793 18.292 18.292a6 6 0 0 0 8.485-8.486l-18.291-18.292 17.162-17.162 51.608 51.608zm61.189-41.76a5.615 5.615 0 0 1 0 7.931 5.616 5.616 0 0 1 -7.932 0l-71.042-71.042a5.609 5.609 0 0 1 7.933-7.932zm-23.768-40.74-6.538-6.538 32.707-32.707 6.539 6.538zm67-21.927a4.626 4.626 0 0 1 -6.537 0l-45.07-45.069a4.623 4.623 0 0 1 6.538-6.539l45.07 45.07a4.627 4.627 0 0 1 -.004 6.538z" fill="#4345c5" data-original="#000000" style=""/><path xmlns="http://www.w3.org/2000/svg" d="m78.182 502a30.322 30.322 0 0 0 30.287-30.287c0-.117 0-.234-.01-.349-.071-7.22-2.328-12.586-4.84-17.9-4.13-8.712-19.809-31.878-20.474-32.86a6 6 0 0 0 -4.966-2.633 6 6 0 0 0 -4.966 2.631c-.668.984-16.406 24.212-20.482 32.877-2.339 4.97-4.835 10.888-4.835 18.231a30.321 30.321 0 0 0 30.286 30.29zm-14.594-43.409c2.222-4.723 9.236-15.687 14.587-23.807 5.34 8.109 12.342 19.059 14.6 23.819 2.5 5.282 3.687 8.591 3.687 13.11 0 .092 0 .184.007.276a18.287 18.287 0 0 1 -36.572-.276c.003-4.868 1.822-9.151 3.691-13.122z" fill="#4345c5" data-original="#000000" style=""/></g></svg>
